<svg xmlns="http://www.w3.org/2000/svg" viewBox="0 0 153.32 153.32"><defs><style>.cls-1{fill:none;}.cls-2{fill:#272727;}</style></defs><title>Asset 16-icon</title><g id="Layer_2" data-name="Layer 2"><g id="Layer_1-2" data-name="Layer 1"><rect class="cls-1" width="153.32" height="153.32"/><path class="cls-2" d="M67.58,144.62c-3,0-5.77-2-7.27-5.31A5.81,5.81,0,0,0,55,135.79a6,6,0,0,0-2.92.77,9.63,9.63,0,0,1-4.66,1.29c-4.16,0-7.2-3.18-7.56-7.91a5.74,5.74,0,0,0-5.8-5.47,6.37,6.37,0,0,0-1,.07c-3.41.53-6.41-.5-8.14-2.79a8.52,8.52,0,0,1-1.08-7.61,5.8,5.8,0,0,0-4.53-7.39c-3.16-.63-5.53-2.41-6.51-4.9a8.43,8.43,0,0,1,1.41-8,5.94,5.94,0,0,0,1-4.64,5.84,5.84,0,0,0-2.78-3.85,7.81,7.81,0,0,1-.37-13.9,5.79,5.79,0,0,0,1.28-8.57,8.4,8.4,0,0,1-1.84-7.94,8.41,8.41,0,0,1,6.24-5.24,5.8,5.8,0,0,0,4.13-7.63,8.45,8.45,0,0,1,.78-7.81c1.64-2.28,4.41-3.41,7.87-3.07a5.8,5.8,0,0,0,6.49-5.75c.1-4.89,3.21-8.32,7.55-8.32a10,10,0,0,1,4.29,1,6.12,6.12,0,0,0,2.65.62A5.82,5.82,0,0,0,57,15c1.39-3.57,4.14-5.7,7.36-5.7a8.78,8.78,0,0,1,6.26,2.92A5.78,5.78,0,0,0,79.26,12,8.75,8.75,0,0,1,85.73,8.7c3.06,0,5.78,2,7.28,5.31a5.79,5.79,0,0,0,5.3,3.51,6,6,0,0,0,2.92-.77,9.75,9.75,0,0,1,4.67-1.29c4.16,0,7.19,3.18,7.55,7.92a5.75,5.75,0,0,0,5.81,5.47,6.58,6.58,0,0,0,1-.08c3.42-.53,6.4.51,8.13,2.79a8.51,8.51,0,0,1,1.08,7.62A5.81,5.81,0,0,0,134,46.57a8.41,8.41,0,0,1,6.51,4.9,8.41,8.41,0,0,1-1.41,8,5.81,5.81,0,0,0,1.73,8.5,7.8,7.8,0,0,1,.38,13.89,5.8,5.8,0,0,0-1.28,8.58,7.8,7.8,0,0,1-4.4,13.18,5.8,5.8,0,0,0-4.14,7.62,8.44,8.44,0,0,1-.78,7.81c-1.63,2.29-4.4,3.42-7.86,3.07a5.8,5.8,0,0,0-6.49,5.75c-.11,4.9-3.21,8.32-7.55,8.32a9.89,9.89,0,0,1-4.3-1.05,6.06,6.06,0,0,0-2.65-.62,5.81,5.81,0,0,0-5.41,3.8C95,141.91,92.2,144,89,144a8.76,8.76,0,0,1-6.26-2.92,5.92,5.92,0,0,0-4.23-1.83,5.85,5.85,0,0,0-4.44,2.06A8.7,8.7,0,0,1,67.58,144.62ZM55,130.89a10.64,10.64,0,0,1,9.77,6.4c.7,1.54,1.72,2.43,2.81,2.43a4,4,0,0,0,2.79-1.6,10.7,10.7,0,0,1,15.86-.42A4.07,4.07,0,0,0,89,139.14c1.14,0,2.15-.94,2.79-2.57a10.69,10.69,0,0,1,10-6.93,10.87,10.87,0,0,1,4.78,1.11,5.13,5.13,0,0,0,2.16.56c2.33,0,2.64-2.46,2.66-3.52a10.71,10.71,0,0,1,11.87-10.52c1.57.15,2.81-.23,3.4-1a3.74,3.74,0,0,0,.12-3.38,10.71,10.71,0,0,1,7.56-14,3,3,0,0,0,1.8-5.37,10.68,10.68,0,0,1,2.33-15.68A3.68,3.68,0,0,0,140.37,75a3.67,3.67,0,0,0-2.09-2.77,10.7,10.7,0,0,1-3.17-15.54,3.67,3.67,0,0,0,.83-3.37,3.65,3.65,0,0,0-2.91-1.9,10.68,10.68,0,0,1-8.29-13.52,3.82,3.82,0,0,0-.28-3.33,3.05,3.05,0,0,0-2.49-1,5.82,5.82,0,0,0-1,.08,12.45,12.45,0,0,1-1.72.13,10.69,10.69,0,0,1-10.7-10c-.07-1-.49-3.39-2.66-3.39a5,5,0,0,0-2.31.69,11,11,0,0,1-5.28,1.37A10.66,10.66,0,0,1,88.54,16c-.69-1.54-1.72-2.42-2.81-2.42A4,4,0,0,0,83,15.19a10.81,10.81,0,0,1-8.12,3.74h0a10.77,10.77,0,0,1-7.74-3.31,4.09,4.09,0,0,0-2.75-1.45c-1.14,0-2.16.94-2.79,2.58a10.7,10.7,0,0,1-10,6.92,11,11,0,0,1-4.77-1.1A5.16,5.16,0,0,0,44.62,22C42.29,22,42,24.47,42,25.53A10.73,10.73,0,0,1,30.09,36.05,3.6,3.6,0,0,0,26.7,37.1a3.76,3.76,0,0,0-.13,3.38A10.68,10.68,0,0,1,19,54.42a3.65,3.65,0,0,0-2.8,2,3.65,3.65,0,0,0,1,3.32,10.7,10.7,0,0,1-2.34,15.69A3.65,3.65,0,0,0,13,78.36,3.69,3.69,0,0,0,15,81.14,10.68,10.68,0,0,1,18.2,96.68a3.66,3.66,0,0,0-.82,3.37,3.64,3.64,0,0,0,2.9,1.89,10.7,10.7,0,0,1,8.3,13.52,3.82,3.82,0,0,0,.27,3.33,3.05,3.05,0,0,0,2.49,1,6.94,6.94,0,0,0,1-.08,11.1,11.1,0,0,1,1.73-.13,10.68,10.68,0,0,1,10.69,10c.08,1,.49,3.38,2.67,3.38a5.06,5.06,0,0,0,2.31-.68A11,11,0,0,1,55,130.89Zm76.21-54.06a54.35,54.35,0,0,0-14.59-37.32A2.45,2.45,0,0,0,113,42.85a49.66,49.66,0,0,1-36.37,83.46H76.5A49.66,49.66,0,0,1,76.66,27h.15a49.3,49.3,0,0,1,28.76,9.28,2.45,2.45,0,1,0,2.85-4A54.17,54.17,0,0,0,76.83,22.1h-.17a54.56,54.56,0,0,0-.17,109.11h.17A54.61,54.61,0,0,0,131.21,76.83ZM51.93,105.52l-6.42.93-5.79-39.8q-1.2-8.22,6.49-9.35L51,56.6q7.69-1.12,8.89,7.11l5.79,39.8-6.42.94-2.56-17.6-7.36,1.08Zm4-24.49-2.32-16a2.51,2.51,0,0,0-3.22-2.4l-1.74.25a2.5,2.5,0,0,0-2.4,3.22l2.33,16Zm26.84-5.2q5.5.7,6.09,4.71l1.75,12q1,7.17-6.25,8.22L71.4,102.68l-7-48,11-1.59q8.55-1.26,9.82,7.45l1.35,9.23q.6,4.14-3.88,5.75ZM73.78,74l3-.44q3.67-.54,3.17-4L78.87,62q-.51-3.48-3.38-3.06l-3.81.56ZM77,95.93l4.82-.7c1.69-.25,2.44-1.06,2.24-2.45L82.48,82.15q-.49-3.42-4.31-2.86l-3.54.52ZM110.09,48l-.76,49.16-7.63,1.11L87,51.37l6.35-.92,10.56,35.89-.12-37.41Z"/></g></g></svg>