<svg xmlns="http://www.w3.org/2000/svg" viewBox="0 0 153.32 153.32"><defs><style>.cls-1{fill:none;}.cls-2{fill:#272727;}</style></defs><title>Asset 15-icon</title><g id="Layer_2" data-name="Layer 2"><g id="Layer_1-2" data-name="Layer 1"><rect class="cls-1" width="153.32" height="153.32"/><path class="cls-2" d="M121.11,39.25a2.44,2.44,0,0,0-2.7,2.17c-1.55,14.59-7.24,26.63-12.25,37.25-4.59,9.72-8.55,18.11-8.55,26.44a120.05,120.05,0,0,0,6.27,37.74H49.53a120.05,120.05,0,0,0,6.27-37.74c0-8.33-4-16.72-8.55-26.44C41.38,66.23,34.48,51.6,34.61,33.05h86.58a2.44,2.44,0,0,0,2.44-2.44,2,2,0,0,0,0-.25,2.82,2.82,0,0,0,0-.41,87.65,87.65,0,0,0-4.24-22.68,2.44,2.44,0,0,0-2.32-1.7H36.34A2.46,2.46,0,0,0,34,7.27a87.63,87.63,0,0,0-4.25,22.78,2.52,2.52,0,0,0-.07.56,2.45,2.45,0,0,0,0,.38C29,51.47,36.49,67.33,42.83,80.76c4.34,9.18,8.08,17.11,8.08,24.35a114.28,114.28,0,0,1-7.15,39.25A2.45,2.45,0,0,0,46,147.74h61.37a2.43,2.43,0,0,0,2-1.09,2.46,2.46,0,0,0,.23-2.29,113.66,113.66,0,0,1-7.15-39.25c0-7.24,3.74-15.17,8.08-24.35,5.18-11,11-23.41,12.7-38.82A2.44,2.44,0,0,0,121.11,39.25Zm-83-28.79h77.13a84.23,84.23,0,0,1,3.35,17.7H34.81A82.55,82.55,0,0,1,38.14,10.46ZM67.53,61.11A8.9,8.9,0,1,0,58.64,70,8.91,8.91,0,0,0,67.53,61.11Zm-8.89,4a4,4,0,1,1,4-4A4,4,0,0,1,58.64,65.12ZM91.38,48.53a7,7,0,1,0,7-7A7,7,0,0,0,91.38,48.53Zm9.09,0a2.1,2.1,0,1,1-2.1-2.11A2.1,2.1,0,0,1,100.47,48.53ZM89.56,102.6a7,7,0,1,0-7,7A7,7,0,0,0,89.56,102.6Zm-7,2.1a2.1,2.1,0,1,1,2.1-2.1A2.1,2.1,0,0,1,82.57,104.7ZM63.68,80.87a3.65,3.65,0,1,1,3.65,3.65A3.64,3.64,0,0,1,63.68,80.87Zm18.89,49a3.64,3.64,0,1,1,3.64,3.64A3.64,3.64,0,0,1,82.57,129.86ZM65.09,115.38A3.64,3.64,0,1,1,68.73,119,3.64,3.64,0,0,1,65.09,115.38Z"/></g></g></svg>